<svg xmlns="http://www.w3.org/2000/svg" width="128" height="128"><path d="M50.508 41.808c1.44-5.704.052-11.768.252-17.648.44-12.84 7.568-15.752 14.876-16.132 8.384-.44 18.308 4.528 18.908 16.64.284 5.796-.74 11.784.756 17.392 3.484 13.08 18.44 22.524 18.656 36.052.2 12.856-5.72 28.008-16.64 34.792-5.64 3.504-13.292-.7-19.92-.252-7.372.504-15.572 7.052-21.932 3.28-11.544-6.852-14.728-24.42-13.864-37.82.88-13.616 15.568-23.072 18.908-36.304z" fill="#241f31"/><ellipse cx="71.04" cy="31.128" rx="5.928" ry="7.664" fill="#f6f5f4" fill-opacity=".941"/><ellipse cx="57" cy="31.396" rx="4.188" ry="6.24" fill="#f6f5f4" fill-opacity=".941"/><ellipse cx="70.304" cy="32.376" rx="2.428" ry="4.012" fill="#241f31"/><ellipse cx="57.02" cy="32.376" rx="1.848" ry="2.988" fill="#241f31"/><path d="M70.256 39.028a20.272 20.272 0 0 0-2.18.016c-4.92.288-10.192 2.22-12.856 4.56-4.264 3.748-1.736 7.392-3.572 12.656s-6.456 12.152-7.84 18.72c-.56 2.652-1.272 5.304-1.76 7.968L55.22 99.044c2.588 3.16-4.164 1.988-10.444-2.08 4.456 6.268 13.296 12.48 22.024 11.892 9.296-.624 20.272-10.344 23.784-18.292-3.408-.576-6.72-5.704-3.992-9.524.948-1.324 2.984-1.44 4.732-1.16-1.052-4.072-3.148-7.72-4.2-10.784-1.824-5.344-3.944-6.84-5.88-11.584-1.94-4.744.108-13.52-5.352-16.936-1.536-.96-3.5-1.44-5.636-1.548z" fill="#f6f5f4"/><path d="M29.332 89.46c1.948-1.56 2.86-4.732 5.292-5.296 1.904-.44 4.04.652 5.548 1.892 3.444 2.832 3.968 8.056 6.68 11.6 1.808 2.356 4.872 3.696 6.304 6.3 1.492 2.72 3.416 6.312 2.016 9.076-1.888 3.724-7.296 4.88-11.472 5.04-2.536.1-4.74-1.84-7.184-2.52-3.56-.992-7.668-.38-10.84-2.268-2.512-1.492-5.488-3.764-5.672-6.68-.076-1.152 1.608-1.78 1.888-2.9.744-2.944-2.108-6.36-.756-9.08 1.44-2.888 5.672-3.148 8.196-5.164zm56.388-4.384c-.804.72-1.484 1.628-1.98 2.528-2.152 3.908-.7 8.96-1.908 13.252-.808 2.86-3.156 5.24-3.52 8.184-.38 3.08-.84 7.128 1.484 9.18 3.136 2.76 8.588 1.828 12.524.432 2.396-.848 3.72-3.464 5.74-5 2.936-2.24 6.98-3.2 9.228-6.124 1.78-2.32 3.708-5.528 2.8-8.304-.36-1.096-2.152-1.06-2.828-1.996-1.78-2.46-.4-6.68-2.66-8.704-1.68-1.5-4.148-1.328-6.532-1.392-1.152 2.468-4.904 4.148-7.484 3.432-2.184-.608-4.36-3.092-4.864-5.488zM62.924 32.608c2.636-.14 5.06 1.568 7.44 2.708 2.3 1.108 6.228 1.44 6.552 3.972.372 2.876-3.68 4.572-6.048 6.24-2.116 1.492-4.476 3.24-7.06 3.216-2.612-.028-4.924-1.9-7.06-3.404-1.76-1.24-4.532-2.384-4.6-4.54-.076-2.304 2.76-3.772 4.6-5.168 1.824-1.384 3.888-2.904 6.176-3.024z" fill="#f5c211"/></svg>